<svg width="167" height="65" viewBox="0 0 167 65" fill="none" xmlns="http://www.w3.org/2000/svg">
<rect width="167" height="65" rx="8" fill="white"/>
<g clip-path="url(#clip0_294_29194)">
<path d="M39.2609 19.9713C40.6156 18.5211 41.5318 16.5077 41.281 14.5C39.3295 14.5696 36.9643 15.6456 35.5635 17.0956C34.3078 18.3793 33.2084 20.431 33.5018 22.3993C35.6794 22.5466 37.9041 21.4191 39.2609 19.9713ZM43.417 33.8366C43.3754 29.3355 46.9806 27.1737 47.1403 27.0692C45.1134 24.0126 41.9568 23.5944 40.8326 23.5472C38.1448 23.2651 35.5918 25.175 34.2272 25.175C32.8681 25.175 30.7659 23.5843 28.5367 23.627C25.6061 23.6753 22.9057 25.3818 21.4006 28.0865C18.3563 33.5275 20.6203 41.5876 23.5869 46.001C25.0371 48.1616 26.7637 50.5853 29.0311 50.4977C31.2199 50.41 32.045 49.0419 34.6857 49.0419C37.3274 49.0419 38.0671 50.4977 40.3783 50.4538C42.7301 50.41 44.2184 48.2516 45.6563 46.0842C47.3199 43.5785 48.0058 41.1526 48.045 41.0301C47.9945 41.0008 43.4653 39.2191 43.417 33.8366Z" fill="#CCD0D2"/>
</g>
<path d="M68.48 26.126C67.6213 26.126 66.856 26.014 66.184 25.79C65.5213 25.5567 64.98 25.244 64.56 24.852L64.98 23.956C65.4373 24.348 65.9413 24.642 66.492 24.838C67.0427 25.0247 67.6867 25.118 68.424 25.118C69.376 25.118 70.0713 24.9593 70.51 24.642C70.9487 24.3247 71.168 23.858 71.168 23.242C71.168 22.6353 70.972 22.192 70.58 21.912C70.1973 21.6227 69.614 21.478 68.83 21.478H66.338V20.526H68.634C69.3807 20.526 69.95 20.3813 70.342 20.092C70.734 19.7933 70.93 19.364 70.93 18.804C70.93 18.244 70.72 17.8053 70.3 17.488C69.8893 17.1707 69.2687 17.012 68.438 17.012C67.822 17.012 67.2433 17.1053 66.702 17.292C66.1607 17.4693 65.666 17.7493 65.218 18.132L64.784 17.236C65.2227 16.8347 65.7687 16.5313 66.422 16.326C67.0847 16.1113 67.78 16.004 68.508 16.004C69.684 16.004 70.5707 16.2467 71.168 16.732C71.7747 17.2173 72.078 17.8707 72.078 18.692C72.078 19.2987 71.8913 19.812 71.518 20.232C71.154 20.6427 70.6547 20.918 70.02 21.058V20.862C70.7293 20.946 71.2893 21.2027 71.7 21.632C72.1107 22.052 72.316 22.6073 72.316 23.298C72.316 23.8767 72.176 24.3807 71.896 24.81C71.616 25.23 71.1913 25.5567 70.622 25.79C70.0527 26.014 69.3387 26.126 68.48 26.126ZM76.9965 26.126C76.3712 26.126 75.8252 25.9813 75.3585 25.692C74.8918 25.3933 74.5278 24.9733 74.2665 24.432C74.0145 23.8907 73.8885 23.242 73.8885 22.486C73.8885 21.7207 74.0145 21.0673 74.2665 20.526C74.5278 19.9847 74.8918 19.5693 75.3585 19.28C75.8252 18.9907 76.3712 18.846 76.9965 18.846C77.6312 18.846 78.1772 19.0093 78.6345 19.336C79.1012 19.6533 79.4092 20.0873 79.5585 20.638H79.3905L79.5445 18.972H80.6365C80.6085 19.2427 80.5805 19.518 80.5525 19.798C80.5338 20.0687 80.5245 20.3347 80.5245 20.596V26H79.3905V24.348H79.5445C79.3952 24.8987 79.0872 25.3327 78.6205 25.65C78.1538 25.9673 77.6125 26.126 76.9965 26.126ZM77.2205 25.202C77.8925 25.202 78.4245 24.9733 78.8165 24.516C79.2085 24.0493 79.4045 23.3727 79.4045 22.486C79.4045 21.59 79.2085 20.9133 78.8165 20.456C78.4245 19.9893 77.8925 19.756 77.2205 19.756C76.5578 19.756 76.0258 19.9893 75.6245 20.456C75.2325 20.9133 75.0365 21.59 75.0365 22.486C75.0365 23.3727 75.2325 24.0493 75.6245 24.516C76.0258 24.9733 76.5578 25.202 77.2205 25.202ZM82.8114 26V18.972H87.7114V19.882H83.9454V26H82.8114ZM89.1018 29.024V20.596C89.1018 20.3347 89.0878 20.0687 89.0598 19.798C89.0411 19.518 89.0178 19.2427 88.9898 18.972H90.0818L90.2358 20.638H90.0678C90.2171 20.0873 90.5204 19.6533 90.9778 19.336C91.4351 19.0093 91.9811 18.846 92.6158 18.846C93.2504 18.846 93.7964 18.9907 94.2538 19.28C94.7204 19.5693 95.0844 19.9847 95.3458 20.526C95.6071 21.0673 95.7378 21.7207 95.7378 22.486C95.7378 23.242 95.6071 23.8907 95.3458 24.432C95.0938 24.9733 94.7344 25.3933 94.2678 25.692C93.8011 25.9813 93.2504 26.126 92.6158 26.126C91.9904 26.126 91.4491 25.9673 90.9918 25.65C90.5344 25.3327 90.2311 24.8987 90.0818 24.348H90.2358V29.024H89.1018ZM92.3918 25.202C93.0638 25.202 93.5958 24.9733 93.9878 24.516C94.3891 24.0493 94.5898 23.3727 94.5898 22.486C94.5898 21.59 94.3891 20.9133 93.9878 20.456C93.5958 19.9893 93.0638 19.756 92.3918 19.756C91.7291 19.756 91.1971 19.9893 90.7958 20.456C90.4038 20.9133 90.2078 21.59 90.2078 22.486C90.2078 23.3727 90.4038 24.0493 90.7958 24.516C91.1971 24.9733 91.7291 25.202 92.3918 25.202ZM97.2847 29.178L97.0187 28.24C97.4573 28.1373 97.8213 28.016 98.1107 27.876C98.4093 27.7453 98.6567 27.568 98.8527 27.344C99.0487 27.12 99.2167 26.84 99.3567 26.504L99.7207 25.678L99.6927 26.154L96.6267 18.972H97.8587L100.393 25.146H100.029L102.535 18.972H103.725L100.477 26.588C100.29 27.036 100.085 27.4093 99.8607 27.708C99.6367 28.016 99.394 28.2633 99.1327 28.45C98.8807 28.646 98.6007 28.8 98.2927 28.912C97.9847 29.024 97.6487 29.1127 97.2847 29.178ZM107.38 26.126C106.782 26.126 106.218 26.0467 105.686 25.888C105.163 25.72 104.734 25.4913 104.398 25.202L104.79 24.404C105.135 24.684 105.522 24.8987 105.952 25.048C106.39 25.188 106.866 25.258 107.38 25.258C108.07 25.258 108.57 25.1507 108.878 24.936C109.186 24.7213 109.34 24.418 109.34 24.026C109.34 23.6433 109.209 23.354 108.948 23.158C108.686 22.9527 108.304 22.85 107.8 22.85H106.148V22.01H107.66C108.108 22.01 108.458 21.912 108.71 21.716C108.971 21.5107 109.102 21.2307 109.102 20.876C109.102 20.512 108.962 20.2273 108.682 20.022C108.402 19.8073 107.963 19.7 107.366 19.7C106.89 19.7 106.446 19.7653 106.036 19.896C105.634 20.0173 105.252 20.2133 104.888 20.484L104.51 19.714C104.892 19.4153 105.336 19.196 105.84 19.056C106.344 18.916 106.89 18.846 107.478 18.846C108.355 18.846 109.022 19.0187 109.48 19.364C109.937 19.7 110.166 20.1807 110.166 20.806C110.166 21.2447 110.016 21.6227 109.718 21.94C109.419 22.248 109.022 22.43 108.528 22.486V22.318C109.088 22.3367 109.54 22.5047 109.886 22.822C110.231 23.1393 110.404 23.5547 110.404 24.068C110.404 24.6933 110.147 25.1927 109.634 25.566C109.13 25.9393 108.378 26.126 107.38 26.126ZM112.165 26V18.972H113.201V24.95H112.823L117.303 18.972H118.255V26H117.233V20.008H117.611L113.131 26H112.165ZM121.989 26V19.882H119.441V18.972H125.685V19.882H123.123V26H121.989ZM130.013 26.126C128.912 26.126 128.044 25.8087 127.409 25.174C126.774 24.53 126.457 23.6387 126.457 22.5C126.457 21.7627 126.597 21.1233 126.877 20.582C127.157 20.0313 127.549 19.6067 128.053 19.308C128.557 19 129.136 18.846 129.789 18.846C130.433 18.846 130.974 18.9813 131.413 19.252C131.852 19.5227 132.188 19.91 132.421 20.414C132.654 20.9087 132.771 21.4967 132.771 22.178V22.598H127.325V21.884H132.029L131.791 22.066C131.791 21.3193 131.623 20.736 131.287 20.316C130.951 19.896 130.452 19.686 129.789 19.686C129.089 19.686 128.543 19.9333 128.151 20.428C127.759 20.9133 127.563 21.5713 127.563 22.402V22.528C127.563 23.4053 127.778 24.0727 128.207 24.53C128.646 24.978 129.257 25.202 130.041 25.202C130.461 25.202 130.853 25.1413 131.217 25.02C131.59 24.8893 131.945 24.6793 132.281 24.39L132.673 25.188C132.365 25.4867 131.973 25.72 131.497 25.888C131.03 26.0467 130.536 26.126 130.013 26.126ZM138.237 26V18.972H141.625C142.437 18.972 143.044 19.1307 143.445 19.448C143.856 19.756 144.061 20.2133 144.061 20.82C144.061 21.268 143.903 21.646 143.585 21.954C143.277 22.2527 142.876 22.43 142.381 22.486V22.318C142.96 22.3367 143.422 22.5047 143.767 22.822C144.113 23.1393 144.285 23.55 144.285 24.054C144.285 24.6607 144.061 25.1367 143.613 25.482C143.175 25.8273 142.549 26 141.737 26H138.237ZM139.315 25.23H141.681C142.176 25.23 142.554 25.1273 142.815 24.922C143.086 24.7073 143.221 24.404 143.221 24.012C143.221 23.62 143.086 23.3213 142.815 23.116C142.554 22.9107 142.176 22.808 141.681 22.808H139.315V25.23ZM139.315 22.038H141.555C142.013 22.038 142.367 21.9353 142.619 21.73C142.871 21.5247 142.997 21.24 142.997 20.876C142.997 20.512 142.871 20.232 142.619 20.036C142.367 19.8307 142.013 19.728 141.555 19.728H139.315V22.038Z" fill="#1E1E1E"/>
<path d="M64 48L69.742 35.31H71.686L77.5 48H75.142L73.594 44.436L74.53 45.066H66.916L67.888 44.436L66.34 48H64ZM70.696 37.794L68.158 43.806L67.69 43.248H73.738L73.36 43.806L70.768 37.794H70.696ZM78.724 51.888V41.178C78.724 40.806 78.712 40.428 78.688 40.044C78.664 39.66 78.628 39.282 78.58 38.91H80.758L80.956 40.818H80.758C80.938 40.182 81.316 39.678 81.892 39.306C82.48 38.922 83.158 38.73 83.926 38.73C84.73 38.73 85.432 38.922 86.032 39.306C86.632 39.678 87.1 40.218 87.436 40.926C87.772 41.622 87.94 42.462 87.94 43.446C87.94 44.43 87.772 45.276 87.436 45.984C87.1 46.692 86.632 47.238 86.032 47.622C85.432 47.994 84.73 48.18 83.926 48.18C83.17 48.18 82.504 47.994 81.928 47.622C81.352 47.25 80.968 46.752 80.776 46.128H80.974V51.888H78.724ZM83.296 46.452C84.016 46.452 84.592 46.206 85.024 45.714C85.456 45.21 85.672 44.454 85.672 43.446C85.672 42.438 85.456 41.688 85.024 41.196C84.592 40.704 84.016 40.458 83.296 40.458C82.588 40.458 82.018 40.704 81.586 41.196C81.154 41.688 80.938 42.438 80.938 43.446C80.938 44.454 81.154 45.21 81.586 45.714C82.018 46.206 82.588 46.452 83.296 46.452ZM89.8861 51.888V41.178C89.8861 40.806 89.8741 40.428 89.8501 40.044C89.8261 39.66 89.7901 39.282 89.7421 38.91H91.9201L92.1181 40.818H91.9201C92.1001 40.182 92.4781 39.678 93.0541 39.306C93.6421 38.922 94.3201 38.73 95.0881 38.73C95.8921 38.73 96.5941 38.922 97.1941 39.306C97.7941 39.678 98.2621 40.218 98.5981 40.926C98.9341 41.622 99.1021 42.462 99.1021 43.446C99.1021 44.43 98.9341 45.276 98.5981 45.984C98.2621 46.692 97.7941 47.238 97.1941 47.622C96.5941 47.994 95.8921 48.18 95.0881 48.18C94.3321 48.18 93.6661 47.994 93.0901 47.622C92.5141 47.25 92.1301 46.752 91.9381 46.128H92.1361V51.888H89.8861ZM94.4581 46.452C95.1781 46.452 95.7541 46.206 96.1861 45.714C96.6181 45.21 96.8341 44.454 96.8341 43.446C96.8341 42.438 96.6181 41.688 96.1861 41.196C95.7541 40.704 95.1781 40.458 94.4581 40.458C93.7501 40.458 93.1801 40.704 92.7481 41.196C92.3161 41.688 92.1001 42.438 92.1001 43.446C92.1001 44.454 92.3161 45.21 92.7481 45.714C93.1801 46.206 93.7501 46.452 94.4581 46.452ZM110.596 48.18C109.576 48.18 108.634 48.054 107.77 47.802C106.918 47.538 106.186 47.178 105.574 46.722L106.294 44.904C106.702 45.192 107.128 45.438 107.572 45.642C108.016 45.834 108.49 45.984 108.994 46.092C109.498 46.188 110.032 46.236 110.596 46.236C111.544 46.236 112.228 46.08 112.648 45.768C113.068 45.456 113.278 45.048 113.278 44.544C113.278 44.1 113.134 43.764 112.846 43.536C112.558 43.296 112.042 43.098 111.298 42.942L109.264 42.528C108.1 42.288 107.23 41.886 106.654 41.322C106.078 40.758 105.79 40.002 105.79 39.054C105.79 38.262 106 37.572 106.42 36.984C106.84 36.396 107.428 35.94 108.184 35.616C108.94 35.292 109.822 35.13 110.83 35.13C111.73 35.13 112.564 35.262 113.332 35.526C114.1 35.778 114.742 36.144 115.258 36.624L114.538 38.352C114.022 37.92 113.458 37.602 112.846 37.398C112.234 37.182 111.55 37.074 110.794 37.074C109.942 37.074 109.276 37.242 108.796 37.578C108.328 37.902 108.094 38.352 108.094 38.928C108.094 39.372 108.238 39.726 108.526 39.99C108.826 40.254 109.33 40.458 110.038 40.602L112.054 40.998C113.254 41.238 114.142 41.634 114.718 42.186C115.294 42.726 115.582 43.458 115.582 44.382C115.582 45.138 115.378 45.804 114.97 46.38C114.562 46.944 113.986 47.388 113.242 47.712C112.498 48.024 111.616 48.18 110.596 48.18ZM121.389 48.18C120.309 48.18 119.493 47.898 118.941 47.334C118.389 46.77 118.113 45.924 118.113 44.796V40.602H116.367V38.91H118.113V36.588L120.363 36.012V38.91H122.793V40.602H120.363V44.652C120.363 45.276 120.483 45.714 120.723 45.966C120.963 46.218 121.293 46.344 121.713 46.344C121.941 46.344 122.133 46.326 122.289 46.29C122.457 46.254 122.619 46.206 122.775 46.146V47.928C122.571 48.012 122.343 48.072 122.091 48.108C121.851 48.156 121.617 48.18 121.389 48.18ZM128.338 48.18C127.402 48.18 126.592 47.988 125.908 47.604C125.224 47.22 124.69 46.674 124.306 45.966C123.934 45.258 123.748 44.418 123.748 43.446C123.748 42.474 123.934 41.64 124.306 40.944C124.69 40.236 125.224 39.69 125.908 39.306C126.592 38.922 127.402 38.73 128.338 38.73C129.274 38.73 130.084 38.922 130.768 39.306C131.464 39.69 131.998 40.236 132.37 40.944C132.754 41.64 132.946 42.474 132.946 43.446C132.946 44.418 132.754 45.258 132.37 45.966C131.998 46.674 131.464 47.22 130.768 47.604C130.084 47.988 129.274 48.18 128.338 48.18ZM128.338 46.452C129.046 46.452 129.61 46.206 130.03 45.714C130.45 45.21 130.66 44.454 130.66 43.446C130.66 42.438 130.45 41.688 130.03 41.196C129.61 40.704 129.046 40.458 128.338 40.458C127.63 40.458 127.066 40.704 126.646 41.196C126.226 41.688 126.016 42.438 126.016 43.446C126.016 44.454 126.226 45.21 126.646 45.714C127.066 46.206 127.63 46.452 128.338 46.452ZM134.868 48V41.232C134.868 40.848 134.856 40.458 134.832 40.062C134.82 39.666 134.79 39.282 134.742 38.91H136.92L137.172 41.394H136.812C136.932 40.794 137.13 40.296 137.406 39.9C137.694 39.504 138.042 39.21 138.45 39.018C138.858 38.826 139.302 38.73 139.782 38.73C139.998 38.73 140.172 38.742 140.304 38.766C140.436 38.778 140.568 38.808 140.7 38.856L140.682 40.836C140.454 40.74 140.256 40.68 140.088 40.656C139.932 40.632 139.734 40.62 139.494 40.62C138.978 40.62 138.54 40.728 138.18 40.944C137.832 41.16 137.568 41.46 137.388 41.844C137.22 42.228 137.136 42.666 137.136 43.158V48H134.868ZM146.204 48.18C144.68 48.18 143.486 47.76 142.622 46.92C141.758 46.08 141.326 44.928 141.326 43.464C141.326 42.516 141.512 41.688 141.884 40.98C142.256 40.272 142.772 39.72 143.432 39.324C144.104 38.928 144.884 38.73 145.772 38.73C146.648 38.73 147.38 38.916 147.968 39.288C148.556 39.66 149 40.182 149.3 40.854C149.612 41.526 149.768 42.312 149.768 43.212V43.806H143.144V42.618H148.166L147.86 42.87C147.86 42.03 147.68 41.388 147.32 40.944C146.972 40.5 146.462 40.278 145.79 40.278C145.046 40.278 144.47 40.542 144.062 41.07C143.666 41.598 143.468 42.336 143.468 43.284V43.518C143.468 44.502 143.708 45.24 144.188 45.732C144.68 46.212 145.37 46.452 146.258 46.452C146.774 46.452 147.254 46.386 147.698 46.254C148.154 46.11 148.586 45.882 148.994 45.57L149.66 47.082C149.228 47.43 148.712 47.7 148.112 47.892C147.512 48.084 146.876 48.18 146.204 48.18Z" fill="#1E1E1E"/>
<defs>
<clipPath id="clip0_294_29194">
<rect width="36" height="36" fill="white" transform="translate(16 14.5)"/>
</clipPath>
</defs>
</svg>
