<svg width="48" height="48" viewBox="0 0 48 48" fill="none" xmlns="http://www.w3.org/2000/svg">
<path d="M24.0001 3H14.9001C14.5135 3 14.2001 3.31343 14.2001 3.7V8.60004H3.7C3.31343 8.60004 3 8.91347 3 9.30004V44.3003C3 44.6869 3.31343 45.0003 3.7 45.0003H24.0001C24.3867 45.0003 24.7002 44.6869 24.7002 44.3003V3.7C24.7002 3.31343 24.3867 3 24.0001 3ZM23.3001 39.4003H15.6001V38.0002H23.3001V39.4003ZM4.40001 13.5001H14.2001V34.5002H4.40001V13.5001ZM23.3001 10.7001H15.6001V8.60004H23.3001V10.7001ZM4.40001 35.9002H14.2001V38.0002H4.40001V35.9002ZM15.6001 36.6002V12.1001H23.3001V36.6002H15.6001ZM23.3001 4.40001V7.20003H15.6001V4.40001H23.3001ZM14.2001 10V12.1001H4.40001V10H14.2001ZM4.40001 39.4003H14.2001V43.6003H4.40001V39.4003ZM15.6001 43.6003V40.8003H23.3001V43.6003H15.6001Z" fill="#107FE4"/>
<path d="M44.977 41.324L36.577 9.12373C36.5301 8.94326 36.4132 8.78911 36.2519 8.69511C36.0909 8.60146 35.8992 8.57583 35.719 8.62402L25.219 11.424C24.8471 11.5232 24.6249 11.9039 24.722 12.2765L33.122 44.4767C33.1689 44.6572 33.2861 44.8113 33.4474 44.905C33.6084 44.9983 33.8002 45.0236 33.98 44.9751L44.48 42.175C44.8512 42.0759 45.0731 41.6958 44.977 41.324ZM27.3679 16.8727L36.5154 14.4339L36.8446 15.6938L27.6977 18.1363L27.3679 16.8727ZM37.198 17.0521L41.2579 32.6255L32.1137 35.0653L28.0539 19.4908L37.198 17.0521ZM41.6144 33.9807L42.3311 36.7278L33.1836 39.1665L32.4696 36.4205L41.6144 33.9807ZM35.3998 10.1577L36.162 13.0801L27.0144 15.5181L26.2529 12.5971L35.3998 10.1577ZM34.2992 43.4428L33.537 40.5204L42.6846 38.081L43.4461 41.002L34.2992 43.4428Z" fill="#107FE4"/>
<path d="M12.1008 15.6002H6.50079C6.11421 15.6002 5.80078 15.9136 5.80078 16.3002V21.9003C5.80078 22.2868 6.11421 22.6003 6.50079 22.6003H12.1008C12.4874 22.6003 12.8008 22.2868 12.8008 21.9003V16.3002C12.8008 15.9136 12.4874 15.6002 12.1008 15.6002ZM11.4008 21.2003H7.20079V17.0002H11.4008V21.2003Z" fill="#107FE4"/>
</svg>
