<svg width="44" height="44" viewBox="0 0 44 44" fill="none" xmlns="http://www.w3.org/2000/svg">
<g clip-path="url(#clip0_358_30110)">
<path d="M22 0H12.4667C12.0617 0 11.7333 0.328353 11.7333 0.733333V5.86667H0.733333C0.328353 5.86667 0 6.19502 0 6.6V43.2667C0 43.6716 0.328353 44 0.733333 44H22C22.405 44 22.7333 43.6716 22.7333 43.2667V0.733333C22.7333 0.328353 22.405 0 22 0ZM21.2667 38.1333H13.2V36.6667H21.2667V38.1333ZM1.46667 11H11.7333V33H1.46667V11ZM21.2667 8.06667H13.2V5.86667H21.2667V8.06667ZM1.46667 34.4667H11.7333V36.6667H1.46667V34.4667ZM13.2 35.2V9.53333H21.2667V35.2H13.2ZM21.2667 1.46667V4.4H13.2V1.46667H21.2667ZM11.7333 7.33333V9.53333H1.46667V7.33333H11.7333ZM1.46667 38.1333H11.7333V42.5333H1.46667V38.1333ZM13.2 42.5333V39.6H21.2667V42.5333H13.2Z" fill="#EF7F1A"/>
<path d="M43.9767 40.149L35.1767 6.41562C35.1276 6.22656 35.0051 6.06507 34.8361 5.9666C34.6675 5.86849 34.4666 5.84163 34.2779 5.89212L23.2779 8.82545C22.8883 8.9293 22.6556 9.32819 22.7573 9.71849L31.5573 43.4518C31.6063 43.6409 31.7291 43.8024 31.8981 43.9005C32.0668 43.9982 32.2677 44.0247 32.456 43.9739L43.456 41.0406C43.8449 40.9367 44.0773 40.5385 43.9767 40.149ZM25.5291 14.5335L35.1122 11.9786L35.457 13.2985L25.8746 15.8573L25.5291 14.5335ZM35.8273 14.7215L40.0805 31.0364L30.5009 33.5923L26.2477 17.2763L35.8273 14.7215ZM40.4539 32.4561L41.2048 35.334L31.6217 37.8888L30.8737 35.012L40.4539 32.4561ZM33.9435 7.49879L34.742 10.5603L25.1588 13.1145L24.3611 10.0544L33.9435 7.49879ZM32.7905 42.3687L31.992 39.3071L41.5751 36.7516L42.3728 39.8117L32.7905 42.3687Z" fill="#EF7F1A"/>
<path d="M9.53359 13.1992H3.66693C3.26195 13.1992 2.93359 13.5276 2.93359 13.9326V19.7992C2.93359 20.2042 3.26195 20.5326 3.66693 20.5326H9.53359C9.93857 20.5326 10.2669 20.2042 10.2669 19.7992V13.9326C10.2669 13.5276 9.93857 13.1992 9.53359 13.1992ZM8.80026 19.0659H4.40026V14.6659H8.80026V19.0659Z" fill="#EF7F1A"/>
</g>
<defs>
<clipPath id="clip0_358_30110">
<rect width="44" height="44" fill="white"/>
</clipPath>
</defs>
</svg>
