<svg width="48" height="48" viewBox="0 0 48 48" fill="none" xmlns="http://www.w3.org/2000/svg">
<path d="M44.2538 10.5149C43.7096 9.87163 42.9475 9.4787 42.1077 9.40856L12.5308 6.93893C11.691 6.86879 10.8744 7.1299 10.2311 7.67401C9.59031 8.21599 9.19795 8.97421 9.1256 9.80986L8.53055 15.3926H6.15451C4.41512 15.3926 3 16.8077 3 18.5471V37.0617C3 38.8011 4.41512 40.2162 6.15451 40.2162H35.8345C37.574 40.2162 38.9891 38.8011 38.9891 37.0617V34.0583L40.0423 34.1462C40.1311 34.1536 40.2195 34.1573 40.3071 34.1573C41.9287 34.1573 43.3111 32.9097 43.4484 31.2651L44.989 12.8147C45.0591 11.975 44.798 11.1583 44.2538 10.5149ZM6.15451 17.0332H35.8345C36.6692 17.0332 37.3485 17.7123 37.3485 18.5471V20.2341H4.64063V18.5471C4.64063 17.7123 5.31976 17.0332 6.15451 17.0332ZM4.64063 21.8748H37.3485V25.2782H4.64063V21.8748ZM35.8345 38.5756H6.15451C5.31976 38.5756 4.64063 37.8965 4.64063 37.0617V26.9188H37.3485V37.0617C37.3485 37.8965 36.6692 38.5756 35.8345 38.5756ZM43.354 12.6782L41.8134 31.1286C41.7439 31.9604 41.0105 32.581 40.1788 32.5113L38.9891 32.4119V18.5471C38.9891 16.8077 37.574 15.3926 35.8345 15.3926H10.1805L10.7579 9.97524C10.7586 9.969 10.7592 9.96285 10.7597 9.95653C10.8291 9.12465 11.5622 8.50417 12.3943 8.5739L41.9713 11.0435C42.3743 11.0772 42.7401 11.2658 43.0012 11.5745C43.2623 11.8833 43.3877 12.2751 43.354 12.6782Z" fill="#107FE4"/>
<path d="M33.9144 29.3574H26.0195C25.5665 29.3574 25.1992 29.7247 25.1992 30.1777V35.3284C25.1992 35.7815 25.5665 36.1487 26.0195 36.1487H33.9144C34.3675 36.1487 34.7347 35.7815 34.7347 35.3284V30.1777C34.7347 29.7247 34.3675 29.3574 33.9144 29.3574ZM33.0941 34.5081H26.8399V30.9981H33.0941V34.5081Z" fill="#107FE4"/>
</svg>
