<svg width="188" height="65" viewBox="0 0 188 65" fill="none" xmlns="http://www.w3.org/2000/svg">
<rect width="188" height="65" rx="8" fill="white"/>
<path d="M36.2739 32.503L21.1234 47.092C20.4139 46.6071 19.9926 45.8006 20.0001 44.9413V20.0647C19.9926 19.2054 20.4139 18.3989 21.1234 17.9141L36.2739 32.503Z" fill="#2196F3"/>
<path d="M41.5749 27.4077L36.2736 32.5036L21.123 17.9146C21.1801 17.8704 21.2396 17.8292 21.3011 17.7913C22.1018 17.306 23.102 17.2904 23.9176 17.7502L41.5749 27.4077Z" fill="#4CAF50"/>
<path d="M47.9994 32.5041C48.0093 33.4741 47.4822 34.3701 46.6295 34.8329L41.5748 37.5999L36.2734 32.5041L41.5748 27.4082L46.6295 30.1753C47.4822 30.638 48.0093 31.534 47.9994 32.5041Z" fill="#FFC107"/>
<path d="M41.5749 37.5998L23.9176 47.2573C23.1002 47.71 22.1038 47.6943 21.3011 47.2162C21.2396 47.1783 21.1801 47.1371 21.123 47.0929L36.2737 32.5039L41.5749 37.5998Z" fill="#F44336"/>
<path d="M64.238 28.198V25.048H65.246C65.75 24.432 66.1233 23.606 66.366 22.57C66.6087 21.5247 66.73 20.2273 66.73 18.678V16.13H73.464V25.048H74.906V28.198H73.87V26H65.274V28.198H64.238ZM66.436 25.048H72.302V17.082H67.808V18.762C67.808 20.2647 67.696 21.5247 67.472 22.542C67.248 23.55 66.9027 24.3853 66.436 25.048ZM79.2846 26.126C78.6126 26.126 78.0246 25.9813 77.5206 25.692C77.0259 25.3933 76.6433 24.9733 76.3726 24.432C76.1019 23.8813 75.9666 23.2327 75.9666 22.486C75.9666 21.73 76.1019 21.0813 76.3726 20.54C76.6433 19.9987 77.0259 19.5833 77.5206 19.294C78.0246 18.9953 78.6126 18.846 79.2846 18.846C79.9659 18.846 80.5539 18.9953 81.0486 19.294C81.5526 19.5833 81.9399 19.9987 82.2106 20.54C82.4906 21.0813 82.6306 21.73 82.6306 22.486C82.6306 23.2327 82.4906 23.8813 82.2106 24.432C81.9399 24.9733 81.5526 25.3933 81.0486 25.692C80.5539 25.9813 79.9659 26.126 79.2846 26.126ZM79.2846 25.202C79.9566 25.202 80.4886 24.9733 80.8806 24.516C81.2726 24.0493 81.4686 23.3727 81.4686 22.486C81.4686 21.59 81.2679 20.9133 80.8666 20.456C80.4746 19.9893 79.9473 19.756 79.2846 19.756C78.6219 19.756 78.0946 19.9893 77.7026 20.456C77.3106 20.9133 77.1146 21.59 77.1146 22.486C77.1146 23.3727 77.3106 24.0493 77.7026 24.516C78.0946 24.9733 78.6219 25.202 79.2846 25.202ZM87.4894 26.126C86.7987 26.126 86.1967 25.9767 85.6834 25.678C85.1794 25.3793 84.7874 24.9547 84.5074 24.404C84.2367 23.8533 84.1014 23.2 84.1014 22.444C84.1014 21.6787 84.2414 21.03 84.5214 20.498C84.8014 19.9567 85.1934 19.546 85.6974 19.266C86.2107 18.986 86.808 18.846 87.4894 18.846C87.9374 18.846 88.3714 18.9253 88.7914 19.084C89.2207 19.2427 89.5754 19.4667 89.8554 19.756L89.4494 20.568C89.1694 20.2973 88.8614 20.0967 88.5254 19.966C88.1987 19.8353 87.8767 19.77 87.5594 19.77C86.8314 19.77 86.2667 19.9987 85.8654 20.456C85.464 20.9133 85.2634 21.5807 85.2634 22.458C85.2634 23.326 85.464 23.998 85.8654 24.474C86.2667 24.95 86.8314 25.188 87.5594 25.188C87.8674 25.188 88.1847 25.1273 88.5114 25.006C88.8474 24.8847 89.16 24.684 89.4494 24.404L89.8554 25.202C89.566 25.5007 89.2067 25.7293 88.7774 25.888C88.348 26.0467 87.9187 26.126 87.4894 26.126ZM93.0457 26V19.882H90.4977V18.972H96.7417V19.882H94.1797V26H93.0457ZM97.7222 29.178L97.4562 28.24C97.8948 28.1373 98.2588 28.016 98.5482 27.876C98.8468 27.7453 99.0942 27.568 99.2902 27.344C99.4862 27.12 99.6542 26.84 99.7942 26.504L100.158 25.678L100.13 26.154L97.0642 18.972H98.2962L100.83 25.146H100.466L102.972 18.972H104.162L100.914 26.588C100.728 27.036 100.522 27.4093 100.298 27.708C100.074 28.016 99.8315 28.2633 99.5702 28.45C99.3182 28.646 99.0382 28.8 98.7302 28.912C98.4222 29.024 98.0862 29.1127 97.7222 29.178ZM105.52 26V18.972H111.61V26H110.476V19.868H106.654V26H105.52ZM113.847 26V18.972H114.981V21.912H118.845V18.972H119.979V26H118.845V22.822H114.981V26H113.847ZM125.154 26.126C124.482 26.126 123.894 25.9813 123.39 25.692C122.895 25.3933 122.512 24.9733 122.242 24.432C121.971 23.8813 121.836 23.2327 121.836 22.486C121.836 21.73 121.971 21.0813 122.242 20.54C122.512 19.9987 122.895 19.5833 123.39 19.294C123.894 18.9953 124.482 18.846 125.154 18.846C125.835 18.846 126.423 18.9953 126.918 19.294C127.422 19.5833 127.809 19.9987 128.08 20.54C128.36 21.0813 128.5 21.73 128.5 22.486C128.5 23.2327 128.36 23.8813 128.08 24.432C127.809 24.9733 127.422 25.3933 126.918 25.692C126.423 25.9813 125.835 26.126 125.154 26.126ZM125.154 25.202C125.826 25.202 126.358 24.9733 126.75 24.516C127.142 24.0493 127.338 23.3727 127.338 22.486C127.338 21.59 127.137 20.9133 126.736 20.456C126.344 19.9893 125.816 19.756 125.154 19.756C124.491 19.756 123.964 19.9893 123.572 20.456C123.18 20.9133 122.984 21.59 122.984 22.486C122.984 23.3727 123.18 24.0493 123.572 24.516C123.964 24.9733 124.491 25.202 125.154 25.202ZM133.999 26V18.972H137.387C138.199 18.972 138.806 19.1307 139.207 19.448C139.618 19.756 139.823 20.2133 139.823 20.82C139.823 21.268 139.664 21.646 139.347 21.954C139.039 22.2527 138.638 22.43 138.143 22.486V22.318C138.722 22.3367 139.184 22.5047 139.529 22.822C139.874 23.1393 140.047 23.55 140.047 24.054C140.047 24.6607 139.823 25.1367 139.375 25.482C138.936 25.8273 138.311 26 137.499 26H133.999ZM135.077 25.23H137.443C137.938 25.23 138.316 25.1273 138.577 24.922C138.848 24.7073 138.983 24.404 138.983 24.012C138.983 23.62 138.848 23.3213 138.577 23.116C138.316 22.9107 137.938 22.808 137.443 22.808H135.077V25.23ZM135.077 22.038H137.317C137.774 22.038 138.129 21.9353 138.381 21.73C138.633 21.5247 138.759 21.24 138.759 20.876C138.759 20.512 138.633 20.232 138.381 20.036C138.129 19.8307 137.774 19.728 137.317 19.728H135.077V22.038Z" fill="#1E1E1E"/>
<path d="M71.524 48.18C70.096 48.18 68.896 47.916 67.924 47.388C66.952 46.86 66.22 46.11 65.728 45.138C65.236 44.166 64.99 43.014 64.99 41.682C64.99 40.338 65.254 39.18 65.782 38.208C66.31 37.224 67.066 36.468 68.05 35.94C69.046 35.4 70.24 35.13 71.632 35.13C72.556 35.13 73.366 35.256 74.062 35.508C74.758 35.748 75.37 36.102 75.898 36.57L75.124 38.37C74.74 38.07 74.374 37.83 74.026 37.65C73.678 37.47 73.318 37.344 72.946 37.272C72.574 37.188 72.142 37.146 71.65 37.146C70.258 37.146 69.202 37.542 68.482 38.334C67.774 39.114 67.42 40.236 67.42 41.7C67.42 43.164 67.756 44.28 68.428 45.048C69.112 45.816 70.18 46.2 71.632 46.2C72.124 46.2 72.616 46.152 73.108 46.056C73.612 45.96 74.104 45.822 74.584 45.642L74.152 46.614V42.816H71.182V41.124H76.078V47.226C75.49 47.526 74.788 47.76 73.972 47.928C73.156 48.096 72.34 48.18 71.524 48.18ZM82.6522 48.18C81.7162 48.18 80.9062 47.988 80.2222 47.604C79.5382 47.22 79.0042 46.674 78.6202 45.966C78.2482 45.258 78.0622 44.418 78.0622 43.446C78.0622 42.474 78.2482 41.64 78.6202 40.944C79.0042 40.236 79.5382 39.69 80.2222 39.306C80.9062 38.922 81.7162 38.73 82.6522 38.73C83.5882 38.73 84.3982 38.922 85.0822 39.306C85.7782 39.69 86.3122 40.236 86.6842 40.944C87.0682 41.64 87.2602 42.474 87.2602 43.446C87.2602 44.418 87.0682 45.258 86.6842 45.966C86.3122 46.674 85.7782 47.22 85.0822 47.604C84.3982 47.988 83.5882 48.18 82.6522 48.18ZM82.6522 46.452C83.3602 46.452 83.9242 46.206 84.3442 45.714C84.7642 45.21 84.9742 44.454 84.9742 43.446C84.9742 42.438 84.7642 41.688 84.3442 41.196C83.9242 40.704 83.3602 40.458 82.6522 40.458C81.9442 40.458 81.3802 40.704 80.9602 41.196C80.5402 41.688 80.3302 42.438 80.3302 43.446C80.3302 44.454 80.5402 45.21 80.9602 45.714C81.3802 46.206 81.9442 46.452 82.6522 46.452ZM93.3046 48.18C92.3686 48.18 91.5586 47.988 90.8746 47.604C90.1906 47.22 89.6566 46.674 89.2726 45.966C88.9006 45.258 88.7146 44.418 88.7146 43.446C88.7146 42.474 88.9006 41.64 89.2726 40.944C89.6566 40.236 90.1906 39.69 90.8746 39.306C91.5586 38.922 92.3686 38.73 93.3046 38.73C94.2406 38.73 95.0506 38.922 95.7346 39.306C96.4306 39.69 96.9646 40.236 97.3366 40.944C97.7206 41.64 97.9126 42.474 97.9126 43.446C97.9126 44.418 97.7206 45.258 97.3366 45.966C96.9646 46.674 96.4306 47.22 95.7346 47.604C95.0506 47.988 94.2406 48.18 93.3046 48.18ZM93.3046 46.452C94.0126 46.452 94.5766 46.206 94.9966 45.714C95.4166 45.21 95.6266 44.454 95.6266 43.446C95.6266 42.438 95.4166 41.688 94.9966 41.196C94.5766 40.704 94.0126 40.458 93.3046 40.458C92.5966 40.458 92.0326 40.704 91.6126 41.196C91.1926 41.688 90.9826 42.438 90.9826 43.446C90.9826 44.454 91.1926 45.21 91.6126 45.714C92.0326 46.206 92.5966 46.452 93.3046 46.452ZM99.8529 48V34.752H102.103V48H99.8529ZM108.758 52.032C107.918 52.032 107.156 51.942 106.472 51.762C105.8 51.582 105.2 51.306 104.672 50.934L105.158 49.314C105.506 49.542 105.866 49.728 106.238 49.872C106.61 50.016 106.994 50.124 107.39 50.196C107.786 50.268 108.188 50.304 108.596 50.304C109.436 50.304 110.06 50.094 110.468 49.674C110.888 49.266 111.098 48.678 111.098 47.91V45.732H111.278C111.086 46.356 110.696 46.854 110.108 47.226C109.532 47.598 108.866 47.784 108.11 47.784C107.294 47.784 106.58 47.604 105.968 47.244C105.368 46.872 104.9 46.344 104.564 45.66C104.228 44.976 104.06 44.172 104.06 43.248C104.06 42.324 104.228 41.526 104.564 40.854C104.9 40.17 105.368 39.648 105.968 39.288C106.58 38.916 107.294 38.73 108.11 38.73C108.878 38.73 109.544 38.916 110.108 39.288C110.684 39.648 111.068 40.14 111.26 40.764L111.098 40.656L111.278 38.91H113.456C113.408 39.282 113.372 39.66 113.348 40.044C113.324 40.428 113.312 40.806 113.312 41.178V47.64C113.312 49.068 112.922 50.154 112.142 50.898C111.374 51.654 110.246 52.032 108.758 52.032ZM108.722 46.056C109.442 46.056 110.012 45.816 110.432 45.336C110.864 44.844 111.08 44.148 111.08 43.248C111.08 42.348 110.864 41.658 110.432 41.178C110.012 40.698 109.442 40.458 108.722 40.458C107.99 40.458 107.408 40.698 106.976 41.178C106.544 41.658 106.328 42.348 106.328 43.248C106.328 44.148 106.544 44.844 106.976 45.336C107.408 45.816 107.99 46.056 108.722 46.056ZM115.744 48V34.752H117.994V48H115.744ZM124.829 48.18C123.305 48.18 122.111 47.76 121.247 46.92C120.383 46.08 119.951 44.928 119.951 43.464C119.951 42.516 120.137 41.688 120.509 40.98C120.881 40.272 121.397 39.72 122.057 39.324C122.729 38.928 123.509 38.73 124.397 38.73C125.273 38.73 126.005 38.916 126.593 39.288C127.181 39.66 127.625 40.182 127.925 40.854C128.237 41.526 128.393 42.312 128.393 43.212V43.806H121.769V42.618H126.791L126.485 42.87C126.485 42.03 126.305 41.388 125.945 40.944C125.597 40.5 125.087 40.278 124.415 40.278C123.671 40.278 123.095 40.542 122.687 41.07C122.291 41.598 122.093 42.336 122.093 43.284V43.518C122.093 44.502 122.333 45.24 122.813 45.732C123.305 46.212 123.995 46.452 124.883 46.452C125.399 46.452 125.879 46.386 126.323 46.254C126.779 46.11 127.211 45.882 127.619 45.57L128.285 47.082C127.853 47.43 127.337 47.7 126.737 47.892C126.137 48.084 125.501 48.18 124.829 48.18ZM135.418 48V35.31H141.052C142.444 35.31 143.506 35.646 144.238 36.318C144.97 36.99 145.336 37.914 145.336 39.09C145.336 40.254 144.97 41.178 144.238 41.862C143.506 42.546 142.444 42.888 141.052 42.888H137.74V48H135.418ZM137.74 41.052H140.782C141.55 41.052 142.126 40.884 142.51 40.548C142.894 40.2 143.086 39.714 143.086 39.09C143.086 38.466 142.894 37.986 142.51 37.65C142.126 37.302 141.55 37.128 140.782 37.128H137.74V41.052ZM147.226 48V34.752H149.476V48H147.226ZM155.429 48.18C154.637 48.18 153.941 47.994 153.341 47.622C152.741 47.238 152.273 46.692 151.937 45.984C151.601 45.276 151.433 44.43 151.433 43.446C151.433 42.462 151.601 41.622 151.937 40.926C152.273 40.218 152.741 39.678 153.341 39.306C153.941 38.922 154.637 38.73 155.429 38.73C156.197 38.73 156.869 38.922 157.445 39.306C158.033 39.678 158.423 40.182 158.615 40.818H158.417L158.615 38.91H160.775C160.739 39.282 160.703 39.66 160.667 40.044C160.643 40.428 160.631 40.806 160.631 41.178V48H158.399L158.381 46.128H158.597C158.405 46.752 158.015 47.25 157.427 47.622C156.839 47.994 156.173 48.18 155.429 48.18ZM156.059 46.452C156.767 46.452 157.337 46.206 157.769 45.714C158.201 45.21 158.417 44.454 158.417 43.446C158.417 42.438 158.201 41.688 157.769 41.196C157.337 40.704 156.767 40.458 156.059 40.458C155.351 40.458 154.781 40.704 154.349 41.196C153.917 41.688 153.701 42.438 153.701 43.446C153.701 44.454 153.911 45.21 154.331 45.714C154.763 46.206 155.339 46.452 156.059 46.452ZM162.814 52.086L162.292 50.304C162.856 50.184 163.33 50.046 163.714 49.89C164.098 49.734 164.416 49.53 164.668 49.278C164.92 49.026 165.13 48.702 165.298 48.306L165.748 47.244L165.694 48.126L161.734 38.91H164.128L166.972 46.002H166.45L169.312 38.91H171.58L167.44 48.504C167.164 49.152 166.864 49.686 166.54 50.106C166.216 50.538 165.868 50.88 165.496 51.132C165.124 51.396 164.716 51.6 164.272 51.744C163.828 51.888 163.342 52.002 162.814 52.086Z" fill="#1E1E1E"/>
</svg>
